<mxfile host="app.diagrams.net" modified="2022-08-31T10:55:05.994Z" agent="5.0 (Windows NT 10.0; Win64; x64) AppleWebKit/537.36 (KHTML, like Gecko) Chrome/104.0.0.0 Safari/537.36" etag="2lqPGT-dkZqyMA6dJpv2" version="20.2.7" type="github">
  <diagram id="HV-Ul5BWGhLKLwsfqbYy" name="Page-1">
    <mxGraphModel dx="3555" dy="1763" grid="0" gridSize="10" guides="1" tooltips="1" connect="1" arrows="1" fold="1" page="1" pageScale="1" pageWidth="827" pageHeight="1169" math="0" shadow="0">
      <root>
        <mxCell id="0" />
        <mxCell id="1" parent="0" />
        <mxCell id="Of5QE-kt6p7iBzTXu6Bn-2" value="Diagramme&amp;nbsp; de séquence&amp;nbsp;&lt;span style=&quot;font-size: 11.5pt; line-height: 150%; font-family: Helvetica, sans-serif; background: white;&quot;&gt;supprimer département affectation&lt;/span&gt;" style="shape=umlFrame;whiteSpace=wrap;html=1;rounded=0;shadow=0;glass=0;sketch=0;fontSize=15;fillColor=none;width=438;height=24;" parent="1" vertex="1">
          <mxGeometry x="29" y="23" width="1898" height="1163" as="geometry" />
        </mxCell>
        <mxCell id="Of5QE-kt6p7iBzTXu6Bn-229" value="ALT" style="shape=umlFrame;whiteSpace=wrap;html=1;fontSize=15;fontColor=#000000;fillColor=none;" parent="1" vertex="1">
          <mxGeometry x="787" y="809" width="1104" height="127" as="geometry" />
        </mxCell>
        <mxCell id="Of5QE-kt6p7iBzTXu6Bn-196" value="ALT" style="shape=umlFrame;whiteSpace=wrap;html=1;fontSize=15;fontColor=#000000;fillColor=none;" parent="1" vertex="1">
          <mxGeometry x="787" y="631" width="1105" height="123" as="geometry" />
        </mxCell>
        <mxCell id="Of5QE-kt6p7iBzTXu6Bn-183" value="ALT" style="shape=umlFrame;whiteSpace=wrap;html=1;fontSize=15;fontColor=#000000;fillColor=none;" parent="1" vertex="1">
          <mxGeometry x="787" y="435" width="1107" height="123" as="geometry" />
        </mxCell>
        <mxCell id="Of5QE-kt6p7iBzTXu6Bn-8" value=":DepartementAssignment&lt;br&gt;Controler" style="shape=umlLifeline;perimeter=lifelinePerimeter;whiteSpace=wrap;html=1;container=1;collapsible=0;recursiveResize=0;outlineConnect=0;rounded=0;shadow=0;glass=0;sketch=0;fillColor=none;fontSize=15;fontColor=#0000CC;strokeColor=#0000CC;" parent="1" vertex="1">
          <mxGeometry x="1167" y="65" width="170" height="1110" as="geometry" />
        </mxCell>
        <mxCell id="Of5QE-kt6p7iBzTXu6Bn-173" value="" style="html=1;points=[];perimeter=orthogonalPerimeter;rounded=0;shadow=0;glass=0;sketch=0;fontSize=15;fillColor=none;" parent="Of5QE-kt6p7iBzTXu6Bn-8" vertex="1">
          <mxGeometry x="80" y="327" width="10" height="175" as="geometry" />
        </mxCell>
        <mxCell id="Of5QE-kt6p7iBzTXu6Bn-12" value="" style="shape=umlLifeline;participant=umlActor;perimeter=lifelinePerimeter;whiteSpace=wrap;html=1;container=1;collapsible=0;recursiveResize=0;verticalAlign=top;spacingTop=36;outlineConnect=0;fillColor=none;size=32;sketch=0;shadow=0;rounded=0;glass=0;" parent="1" vertex="1">
          <mxGeometry x="110" y="65" width="20" height="1110" as="geometry" />
        </mxCell>
        <mxCell id="Of5QE-kt6p7iBzTXu6Bn-13" value="&lt;span style=&quot;color: rgb(0, 0, 0); font-family: Helvetica; font-size: 12px; font-style: normal; font-variant-ligatures: normal; font-variant-caps: normal; font-weight: 400; letter-spacing: normal; orphans: 2; text-align: center; text-indent: 0px; text-transform: none; widows: 2; word-spacing: 0px; -webkit-text-stroke-width: 0px; background-color: rgb(248, 249, 250); text-decoration-thickness: initial; text-decoration-style: initial; text-decoration-color: initial; float: none; display: inline !important;&quot;&gt;Administrateur&lt;/span&gt;" style="text;whiteSpace=wrap;html=1;" parent="1" vertex="1">
          <mxGeometry x="72" y="91" width="105" height="36" as="geometry" />
        </mxCell>
        <mxCell id="Of5QE-kt6p7iBzTXu6Bn-16" value="" style="shape=umlLifeline;participant=umlBoundary;perimeter=lifelinePerimeter;whiteSpace=wrap;html=1;container=1;collapsible=0;recursiveResize=0;verticalAlign=top;spacingTop=36;outlineConnect=0;rounded=0;shadow=0;glass=0;sketch=0;fontSize=15;fillColor=none;fontColor=#CC0000;strokeColor=#CC0000;" parent="1" vertex="1">
          <mxGeometry x="286" y="65" width="65" height="1110" as="geometry" />
        </mxCell>
        <mxCell id="Of5QE-kt6p7iBzTXu6Bn-17" value="&lt;span style=&quot;font-family: Helvetica; font-size: 15px; font-style: normal; font-variant-ligatures: normal; font-variant-caps: normal; font-weight: 400; letter-spacing: normal; orphans: 2; text-indent: 0px; text-transform: none; widows: 2; word-spacing: 0px; -webkit-text-stroke-width: 0px; text-decoration-thickness: initial; text-decoration-style: initial; text-decoration-color: initial; float: none; display: inline !important;&quot;&gt;Interface IHM&lt;/span&gt;&lt;br style=&quot;font-family: Helvetica; font-size: 15px; font-style: normal; font-variant-ligatures: normal; font-variant-caps: normal; font-weight: 400; letter-spacing: normal; orphans: 2; text-indent: 0px; text-transform: none; widows: 2; word-spacing: 0px; -webkit-text-stroke-width: 0px; text-decoration-thickness: initial; text-decoration-style: initial; text-decoration-color: initial;&quot;&gt;DepartementEmployees" style="text;whiteSpace=wrap;html=1;fontSize=15;align=center;fillColor=default;fontColor=#CC0000;" parent="Of5QE-kt6p7iBzTXu6Bn-16" vertex="1">
          <mxGeometry x="-24" y="45" width="122" height="45" as="geometry" />
        </mxCell>
        <mxCell id="Of5QE-kt6p7iBzTXu6Bn-18" value="" style="html=1;points=[];perimeter=orthogonalPerimeter;rounded=0;shadow=0;glass=0;sketch=0;fontSize=15;fillColor=none;" parent="Of5QE-kt6p7iBzTXu6Bn-16" vertex="1">
          <mxGeometry x="27.5" y="147" width="10" height="949" as="geometry" />
        </mxCell>
        <mxCell id="Of5QE-kt6p7iBzTXu6Bn-20" value=":GradeAssignment&lt;br&gt;Controler" style="shape=umlLifeline;perimeter=lifelinePerimeter;whiteSpace=wrap;html=1;container=1;collapsible=0;recursiveResize=0;outlineConnect=0;rounded=0;shadow=0;glass=0;sketch=0;fillColor=none;fontSize=15;strokeColor=#0000CC;fontColor=#0000CC;" parent="1" vertex="1">
          <mxGeometry x="1423" y="65" width="130" height="1110" as="geometry" />
        </mxCell>
        <mxCell id="Of5QE-kt6p7iBzTXu6Bn-208" value="" style="html=1;points=[];perimeter=orthogonalPerimeter;rounded=0;shadow=0;glass=0;sketch=0;fontSize=15;fillColor=none;" parent="Of5QE-kt6p7iBzTXu6Bn-20" vertex="1">
          <mxGeometry x="60" y="526" width="10" height="165" as="geometry" />
        </mxCell>
        <mxCell id="Of5QE-kt6p7iBzTXu6Bn-23" value="" style="shape=umlLifeline;participant=umlEntity;perimeter=lifelinePerimeter;whiteSpace=wrap;html=1;container=1;collapsible=0;recursiveResize=0;verticalAlign=top;spacingTop=36;outlineConnect=0;rounded=0;shadow=0;glass=0;sketch=0;fontSize=15;fillColor=none;strokeColor=#0000CC;" parent="1" vertex="1">
          <mxGeometry x="1798" y="65" width="65" height="1110" as="geometry" />
        </mxCell>
        <mxCell id="Of5QE-kt6p7iBzTXu6Bn-24" value="Base de donnée&lt;br&gt;Personnel" style="text;whiteSpace=wrap;html=1;fontSize=15;align=center;fillColor=default;fontColor=#0000CC;labelBackgroundColor=none;" parent="Of5QE-kt6p7iBzTXu6Bn-23" vertex="1">
          <mxGeometry x="-33" y="45" width="127" height="48" as="geometry" />
        </mxCell>
        <mxCell id="Of5QE-kt6p7iBzTXu6Bn-179" value="" style="html=1;points=[];perimeter=orthogonalPerimeter;rounded=0;shadow=0;glass=0;sketch=0;fontSize=15;fillColor=none;" parent="Of5QE-kt6p7iBzTXu6Bn-23" vertex="1">
          <mxGeometry x="27.5" y="352" width="10" height="132" as="geometry" />
        </mxCell>
        <mxCell id="Of5QE-kt6p7iBzTXu6Bn-210" value="" style="html=1;points=[];perimeter=orthogonalPerimeter;rounded=0;shadow=0;glass=0;sketch=0;fontSize=15;fillColor=none;" parent="Of5QE-kt6p7iBzTXu6Bn-23" vertex="1">
          <mxGeometry x="27.5" y="536" width="10" height="133" as="geometry" />
        </mxCell>
        <mxCell id="Of5QE-kt6p7iBzTXu6Bn-237" value="" style="html=1;points=[];perimeter=orthogonalPerimeter;rounded=0;shadow=0;glass=0;sketch=0;fontSize=15;fillColor=none;" parent="Of5QE-kt6p7iBzTXu6Bn-23" vertex="1">
          <mxGeometry x="25" y="722" width="15" height="146" as="geometry" />
        </mxCell>
        <mxCell id="Of5QE-kt6p7iBzTXu6Bn-33" value="&lt;span style=&quot;color: rgb(204, 102, 0);&quot;&gt;&amp;lt;&amp;lt;component&amp;gt;&amp;gt;&lt;/span&gt;&lt;br style=&quot;color: rgb(204, 102, 0);&quot;&gt;DepartementEmployees" style="shape=umlLifeline;perimeter=lifelinePerimeter;whiteSpace=wrap;html=1;container=1;collapsible=0;recursiveResize=0;outlineConnect=0;rounded=0;shadow=0;glass=0;sketch=0;fillColor=none;fontSize=15;fontColor=#CC0000;strokeColor=#CC0000;" parent="1" vertex="1">
          <mxGeometry x="473" y="65" width="166" height="1110" as="geometry" />
        </mxCell>
        <mxCell id="Of5QE-kt6p7iBzTXu6Bn-155" value="" style="html=1;points=[];perimeter=orthogonalPerimeter;rounded=0;shadow=0;glass=0;sketch=0;fontSize=15;fillColor=none;" parent="Of5QE-kt6p7iBzTXu6Bn-33" vertex="1">
          <mxGeometry x="78" y="161" width="10" height="98" as="geometry" />
        </mxCell>
        <mxCell id="Of5QE-kt6p7iBzTXu6Bn-37" value=":RoleAssignment&lt;br&gt;Controler" style="shape=umlLifeline;perimeter=lifelinePerimeter;whiteSpace=wrap;html=1;container=1;collapsible=0;recursiveResize=0;outlineConnect=0;rounded=0;shadow=0;glass=0;sketch=0;fillColor=none;fontSize=15;strokeColor=#0000CC;fontColor=#0000CC;" parent="1" vertex="1">
          <mxGeometry x="1609" y="65" width="132" height="1110" as="geometry" />
        </mxCell>
        <mxCell id="Of5QE-kt6p7iBzTXu6Bn-233" value="" style="html=1;points=[];perimeter=orthogonalPerimeter;rounded=0;shadow=0;glass=0;sketch=0;fontSize=15;fillColor=none;" parent="Of5QE-kt6p7iBzTXu6Bn-37" vertex="1">
          <mxGeometry x="61" y="703.5" width="10" height="164.5" as="geometry" />
        </mxCell>
        <mxCell id="Of5QE-kt6p7iBzTXu6Bn-150" value="" style="edgeStyle=elbowEdgeStyle;fontSize=12;html=1;endArrow=blockThin;endFill=1;rounded=0;" parent="1" source="Of5QE-kt6p7iBzTXu6Bn-12" target="Of5QE-kt6p7iBzTXu6Bn-18" edge="1">
          <mxGeometry width="160" relative="1" as="geometry">
            <mxPoint x="115" y="229" as="sourcePoint" />
            <mxPoint x="323.5" y="237" as="targetPoint" />
            <Array as="points">
              <mxPoint x="190" y="237" />
              <mxPoint x="171" y="210" />
            </Array>
          </mxGeometry>
        </mxCell>
        <mxCell id="Of5QE-kt6p7iBzTXu6Bn-151" value="cliquer sur icone supprimer" style="edgeLabel;html=1;align=center;verticalAlign=middle;resizable=0;points=[];fontSize=15;" parent="Of5QE-kt6p7iBzTXu6Bn-150" vertex="1" connectable="0">
          <mxGeometry x="-0.3952" relative="1" as="geometry">
            <mxPoint x="38" y="-14" as="offset" />
          </mxGeometry>
        </mxCell>
        <mxCell id="Of5QE-kt6p7iBzTXu6Bn-152" value="" style="fontSize=12;html=1;endArrow=blockThin;endFill=1;rounded=0;" parent="1" source="Of5QE-kt6p7iBzTXu6Bn-18" target="Of5QE-kt6p7iBzTXu6Bn-155" edge="1">
          <mxGeometry width="160" relative="1" as="geometry">
            <mxPoint x="333.5" y="238" as="sourcePoint" />
            <mxPoint x="560" y="238" as="targetPoint" />
            <Array as="points">
              <mxPoint x="382" y="238" />
            </Array>
          </mxGeometry>
        </mxCell>
        <mxCell id="Of5QE-kt6p7iBzTXu6Bn-153" value="delete(departementAffectation)" style="edgeLabel;html=1;align=center;verticalAlign=middle;resizable=0;points=[];fontSize=15;" parent="Of5QE-kt6p7iBzTXu6Bn-152" vertex="1" connectable="0">
          <mxGeometry x="-0.0064" y="-3" relative="1" as="geometry">
            <mxPoint x="-3" y="-16" as="offset" />
          </mxGeometry>
        </mxCell>
        <mxCell id="Of5QE-kt6p7iBzTXu6Bn-158" value="" style="shape=umlLifeline;participant=umlBoundary;perimeter=lifelinePerimeter;whiteSpace=wrap;html=1;container=1;collapsible=0;recursiveResize=0;verticalAlign=top;spacingTop=36;outlineConnect=0;rounded=0;shadow=0;glass=0;sketch=0;fontSize=15;fillColor=none;fontColor=#CC6600;strokeColor=#CC6600;" parent="1" vertex="1">
          <mxGeometry x="746" y="65" width="65" height="1110" as="geometry" />
        </mxCell>
        <mxCell id="Of5QE-kt6p7iBzTXu6Bn-159" value="&lt;span style=&quot;font-family: Helvetica; font-size: 15px; font-style: normal; font-variant-ligatures: normal; font-variant-caps: normal; font-weight: 400; letter-spacing: normal; orphans: 2; text-indent: 0px; text-transform: none; widows: 2; word-spacing: 0px; -webkit-text-stroke-width: 0px; background-color: rgb(248, 249, 250); text-decoration-thickness: initial; text-decoration-style: initial; text-decoration-color: initial; float: none; display: inline !important;&quot;&gt;Interface IHM&lt;/span&gt;&lt;br style=&quot;font-family: Helvetica; font-size: 15px; font-style: normal; font-variant-ligatures: normal; font-variant-caps: normal; font-weight: 400; letter-spacing: normal; orphans: 2; text-indent: 0px; text-transform: none; widows: 2; word-spacing: 0px; -webkit-text-stroke-width: 0px; background-color: rgb(248, 249, 250); text-decoration-thickness: initial; text-decoration-style: initial; text-decoration-color: initial;&quot;&gt;DeleteDepartmentAssignmentModale" style="text;whiteSpace=wrap;html=1;fontSize=15;align=center;fillColor=default;fontColor=#CC6600;" parent="Of5QE-kt6p7iBzTXu6Bn-158" vertex="1">
          <mxGeometry x="-24" y="44" width="122" height="45" as="geometry" />
        </mxCell>
        <mxCell id="Of5QE-kt6p7iBzTXu6Bn-160" value="" style="html=1;points=[];perimeter=orthogonalPerimeter;rounded=0;shadow=0;glass=0;sketch=0;fontSize=15;fillColor=none;" parent="Of5QE-kt6p7iBzTXu6Bn-158" vertex="1">
          <mxGeometry x="27.5" y="176" width="10" height="760" as="geometry" />
        </mxCell>
        <mxCell id="Of5QE-kt6p7iBzTXu6Bn-263" value="" style="html=1;points=[];perimeter=orthogonalPerimeter;rounded=0;shadow=0;glass=0;sketch=0;fontSize=15;fillColor=none;" parent="Of5QE-kt6p7iBzTXu6Bn-158" vertex="1">
          <mxGeometry x="27.5" y="1007" width="10" height="47" as="geometry" />
        </mxCell>
        <mxCell id="Of5QE-kt6p7iBzTXu6Bn-161" value="&amp;lt;&amp;lt;component&amp;gt;&amp;gt;&lt;br&gt;DeleteDepartmentAssignmentModale" style="shape=umlLifeline;perimeter=lifelinePerimeter;whiteSpace=wrap;html=1;container=1;collapsible=0;recursiveResize=0;outlineConnect=0;rounded=0;shadow=0;glass=0;sketch=0;fillColor=none;fontSize=15;fontColor=#CC6600;strokeColor=#CC6600;" parent="1" vertex="1">
          <mxGeometry x="878" y="65" width="250" height="1079" as="geometry" />
        </mxCell>
        <mxCell id="Of5QE-kt6p7iBzTXu6Bn-170" value="" style="html=1;points=[];perimeter=orthogonalPerimeter;rounded=0;shadow=0;glass=0;sketch=0;fontSize=15;fillColor=none;" parent="Of5QE-kt6p7iBzTXu6Bn-161" vertex="1">
          <mxGeometry x="120" y="303" width="10" height="776" as="geometry" />
        </mxCell>
        <mxCell id="Of5QE-kt6p7iBzTXu6Bn-162" value="" style="edgeStyle=elbowEdgeStyle;fontSize=12;html=1;endArrow=blockThin;endFill=1;rounded=0;" parent="1" source="Of5QE-kt6p7iBzTXu6Bn-155" target="Of5QE-kt6p7iBzTXu6Bn-160" edge="1">
          <mxGeometry width="160" relative="1" as="geometry">
            <mxPoint x="570" y="246" as="sourcePoint" />
            <mxPoint x="780.4999999999995" y="246" as="targetPoint" />
            <Array as="points">
              <mxPoint x="666" y="251" />
              <mxPoint x="612" y="237" />
            </Array>
          </mxGeometry>
        </mxCell>
        <mxCell id="Of5QE-kt6p7iBzTXu6Bn-163" value="open(departementAffectation&lt;span style=&quot;font-size: 15px;&quot;&gt;)&lt;/span&gt;" style="edgeLabel;html=1;align=center;verticalAlign=middle;resizable=0;points=[];fontSize=15;" parent="Of5QE-kt6p7iBzTXu6Bn-162" vertex="1" connectable="0">
          <mxGeometry x="-0.2599" relative="1" as="geometry">
            <mxPoint x="27" y="-15" as="offset" />
          </mxGeometry>
        </mxCell>
        <mxCell id="Of5QE-kt6p7iBzTXu6Bn-164" value="&lt;div style=&quot;text-align: left; font-size: 15px;&quot;&gt;&lt;/div&gt;&lt;span style=&quot;text-align: right;&quot;&gt;&lt;div style=&quot;text-align: left;&quot;&gt;&lt;span style=&quot;background-color: initial;&quot;&gt;[Suppression Confirmé&lt;/span&gt;&lt;span style=&quot;background-color: initial;&quot;&gt;]&lt;/span&gt;&lt;/div&gt;&lt;/span&gt;" style="text;html=1;strokeColor=none;fillColor=none;align=center;verticalAlign=middle;whiteSpace=wrap;rounded=0;fontSize=15;fontColor=#CC0000;" parent="1" vertex="1">
          <mxGeometry x="129.16" y="296" width="168.35" height="35.81" as="geometry" />
        </mxCell>
        <mxCell id="Of5QE-kt6p7iBzTXu6Bn-165" value="modale confirmer suppression" style="html=1;verticalAlign=bottom;endArrow=open;dashed=1;endSize=8;rounded=0;fontSize=15;" parent="1" source="Of5QE-kt6p7iBzTXu6Bn-160" target="Of5QE-kt6p7iBzTXu6Bn-12" edge="1">
          <mxGeometry relative="1" as="geometry">
            <mxPoint x="780.4999999999995" y="304" as="sourcePoint" />
            <mxPoint x="118.96153846153857" y="304" as="targetPoint" />
            <Array as="points">
              <mxPoint x="593" y="281" />
            </Array>
          </mxGeometry>
        </mxCell>
        <mxCell id="Of5QE-kt6p7iBzTXu6Bn-166" value="" style="edgeStyle=elbowEdgeStyle;fontSize=12;html=1;endArrow=blockThin;endFill=1;rounded=0;fontColor=#000000;" parent="1" source="Of5QE-kt6p7iBzTXu6Bn-12" target="Of5QE-kt6p7iBzTXu6Bn-160" edge="1">
          <mxGeometry width="160" relative="1" as="geometry">
            <mxPoint x="119.44736842105249" y="366" as="sourcePoint" />
            <mxPoint x="780.4999999999995" y="366" as="targetPoint" />
            <Array as="points">
              <mxPoint x="640" y="347" />
            </Array>
          </mxGeometry>
        </mxCell>
        <mxCell id="Of5QE-kt6p7iBzTXu6Bn-167" value="cliquer sur bouton confirmé" style="edgeLabel;html=1;align=center;verticalAlign=middle;resizable=0;points=[];fontSize=15;fontColor=#000000;" parent="Of5QE-kt6p7iBzTXu6Bn-166" vertex="1" connectable="0">
          <mxGeometry x="0.0775" y="-2" relative="1" as="geometry">
            <mxPoint x="-27" y="-14" as="offset" />
          </mxGeometry>
        </mxCell>
        <mxCell id="Of5QE-kt6p7iBzTXu6Bn-168" value="" style="edgeStyle=elbowEdgeStyle;fontSize=12;html=1;endArrow=blockThin;endFill=1;rounded=0;fontColor=#000000;" parent="1" source="Of5QE-kt6p7iBzTXu6Bn-160" target="Of5QE-kt6p7iBzTXu6Bn-170" edge="1">
          <mxGeometry width="160" relative="1" as="geometry">
            <mxPoint x="790.5" y="382.9999999999998" as="sourcePoint" />
            <mxPoint x="996" y="382.9999999999998" as="targetPoint" />
            <Array as="points">
              <mxPoint x="838" y="383" />
            </Array>
          </mxGeometry>
        </mxCell>
        <mxCell id="Of5QE-kt6p7iBzTXu6Bn-169" value="confirmDelete(id)" style="edgeLabel;html=1;align=center;verticalAlign=middle;resizable=0;points=[];fontSize=15;fontColor=#000000;" parent="Of5QE-kt6p7iBzTXu6Bn-168" vertex="1" connectable="0">
          <mxGeometry x="0.0135" y="1" relative="1" as="geometry">
            <mxPoint x="1" y="-13" as="offset" />
          </mxGeometry>
        </mxCell>
        <mxCell id="Of5QE-kt6p7iBzTXu6Bn-171" value="" style="edgeStyle=elbowEdgeStyle;fontSize=12;html=1;endArrow=blockThin;endFill=1;rounded=0;fontColor=#000000;" parent="1" source="Of5QE-kt6p7iBzTXu6Bn-170" target="Of5QE-kt6p7iBzTXu6Bn-173" edge="1">
          <mxGeometry width="160" relative="1" as="geometry">
            <mxPoint x="1006" y="397" as="sourcePoint" />
            <mxPoint x="1273.5" y="397" as="targetPoint" />
            <Array as="points">
              <mxPoint x="1199" y="397" />
              <mxPoint x="1222" y="436" />
            </Array>
          </mxGeometry>
        </mxCell>
        <mxCell id="Of5QE-kt6p7iBzTXu6Bn-172" value="delete(id)" style="edgeLabel;html=1;align=center;verticalAlign=middle;resizable=0;points=[];fontSize=15;fontColor=#000000;" parent="Of5QE-kt6p7iBzTXu6Bn-171" vertex="1" connectable="0">
          <mxGeometry x="-0.0294" relative="1" as="geometry">
            <mxPoint x="5" y="-12" as="offset" />
          </mxGeometry>
        </mxCell>
        <mxCell id="Of5QE-kt6p7iBzTXu6Bn-177" value="" style="edgeStyle=elbowEdgeStyle;fontSize=12;html=1;endArrow=blockThin;endFill=1;rounded=0;fontColor=#000000;" parent="1" source="Of5QE-kt6p7iBzTXu6Bn-173" target="Of5QE-kt6p7iBzTXu6Bn-179" edge="1">
          <mxGeometry width="160" relative="1" as="geometry">
            <mxPoint x="1501" y="419" as="sourcePoint" />
            <mxPoint x="1751" y="437" as="targetPoint" />
            <Array as="points">
              <mxPoint x="1695" y="419" />
              <mxPoint x="1726" y="476" />
            </Array>
          </mxGeometry>
        </mxCell>
        <mxCell id="Of5QE-kt6p7iBzTXu6Bn-178" value="delete(id)" style="edgeLabel;html=1;align=center;verticalAlign=middle;resizable=0;points=[];fontSize=15;fontColor=#000000;" parent="Of5QE-kt6p7iBzTXu6Bn-177" vertex="1" connectable="0">
          <mxGeometry x="-0.0294" relative="1" as="geometry">
            <mxPoint x="5" y="-12" as="offset" />
          </mxGeometry>
        </mxCell>
        <mxCell id="Of5QE-kt6p7iBzTXu6Bn-180" value="&lt;font color=&quot;#009900&quot;&gt;supprimé&lt;/font&gt;" style="html=1;verticalAlign=bottom;endArrow=open;dashed=1;endSize=8;rounded=0;fontSize=15;strokeColor=#009900;" parent="1" source="Of5QE-kt6p7iBzTXu6Bn-179" target="Of5QE-kt6p7iBzTXu6Bn-173" edge="1">
          <mxGeometry x="0.0204" y="1" relative="1" as="geometry">
            <mxPoint x="2439.5" y="482.9999999999998" as="sourcePoint" />
            <mxPoint x="1501" y="468" as="targetPoint" />
            <Array as="points">
              <mxPoint x="1709" y="471" />
            </Array>
            <mxPoint as="offset" />
          </mxGeometry>
        </mxCell>
        <mxCell id="Of5QE-kt6p7iBzTXu6Bn-182" value="" style="html=1;verticalAlign=bottom;endArrow=open;dashed=1;endSize=8;rounded=0;fontSize=15;strokeColor=#009900;" parent="1" source="Of5QE-kt6p7iBzTXu6Bn-173" target="Of5QE-kt6p7iBzTXu6Bn-170" edge="1">
          <mxGeometry x="-0.1513" relative="1" as="geometry">
            <mxPoint x="1273.5" y="505" as="sourcePoint" />
            <mxPoint x="1006" y="505" as="targetPoint" />
            <Array as="points">
              <mxPoint x="1041" y="487" />
            </Array>
            <mxPoint as="offset" />
          </mxGeometry>
        </mxCell>
        <mxCell id="Of5QE-kt6p7iBzTXu6Bn-191" value="&lt;span style=&quot;color: rgb(0, 153, 0); font-size: 15px;&quot;&gt;statut 200&lt;/span&gt;" style="edgeLabel;html=1;align=center;verticalAlign=middle;resizable=0;points=[];" parent="Of5QE-kt6p7iBzTXu6Bn-182" vertex="1" connectable="0">
          <mxGeometry x="-0.2458" y="1" relative="1" as="geometry">
            <mxPoint x="-23" y="-13" as="offset" />
          </mxGeometry>
        </mxCell>
        <mxCell id="Of5QE-kt6p7iBzTXu6Bn-184" value="&lt;div style=&quot;text-align: left; font-size: 15px;&quot;&gt;&lt;/div&gt;&lt;span style=&quot;text-align: right;&quot;&gt;&lt;div style=&quot;text-align: left;&quot;&gt;&lt;span style=&quot;background-color: initial;&quot;&gt;[Suppression Valide&lt;/span&gt;&lt;span style=&quot;background-color: initial;&quot;&gt;]&lt;/span&gt;&lt;/div&gt;&lt;/span&gt;" style="text;html=1;strokeColor=none;fillColor=none;align=center;verticalAlign=middle;whiteSpace=wrap;rounded=0;fontSize=15;fontColor=#009900;" parent="1" vertex="1">
          <mxGeometry x="835.0043024553572" y="433" width="177.32034598214287" height="28" as="geometry" />
        </mxCell>
        <mxCell id="Of5QE-kt6p7iBzTXu6Bn-185" value="&lt;div style=&quot;text-align: left; font-size: 15px;&quot;&gt;&lt;/div&gt;&lt;span style=&quot;text-align: right;&quot;&gt;&lt;div style=&quot;text-align: left;&quot;&gt;&lt;span style=&quot;background-color: initial;&quot;&gt;[Suppression Invalide&lt;/span&gt;&lt;span style=&quot;background-color: initial;&quot;&gt;]&lt;/span&gt;&lt;/div&gt;&lt;/span&gt;" style="text;html=1;strokeColor=none;fillColor=none;align=center;verticalAlign=middle;whiteSpace=wrap;rounded=0;fontSize=15;fontColor=#CC0000;" parent="1" vertex="1">
          <mxGeometry x="832.0043024553572" y="504" width="177.32034598214287" height="28" as="geometry" />
        </mxCell>
        <mxCell id="Of5QE-kt6p7iBzTXu6Bn-186" style="rounded=0;orthogonalLoop=1;jettySize=auto;html=1;fontSize=15;fontColor=#000000;strokeColor=#000000;endArrow=none;endFill=0;dashed=1;exitX=1.066;exitY=0.524;exitDx=0;exitDy=0;exitPerimeter=0;entryX=0.999;entryY=0.554;entryDx=0;entryDy=0;entryPerimeter=0;" parent="1" target="Of5QE-kt6p7iBzTXu6Bn-183" edge="1">
          <mxGeometry relative="1" as="geometry">
            <mxPoint x="784.1599999999999" y="502.5440000000001" as="sourcePoint" />
            <mxPoint x="2508" y="502.5440000000001" as="targetPoint" />
          </mxGeometry>
        </mxCell>
        <mxCell id="Of5QE-kt6p7iBzTXu6Bn-187" value="&lt;font color=&quot;#cc0000&quot;&gt;non supprimé&lt;/font&gt;" style="html=1;verticalAlign=bottom;endArrow=open;dashed=1;endSize=8;rounded=0;fontSize=15;fontColor=#000000;strokeColor=#CC0000;" parent="1" source="Of5QE-kt6p7iBzTXu6Bn-179" target="Of5QE-kt6p7iBzTXu6Bn-173" edge="1">
          <mxGeometry relative="1" as="geometry">
            <mxPoint x="2436.4999999999995" y="512" as="sourcePoint" />
            <mxPoint x="1501" y="532.0000000000002" as="targetPoint" />
            <Array as="points">
              <mxPoint x="1551" y="531" />
            </Array>
          </mxGeometry>
        </mxCell>
        <mxCell id="Of5QE-kt6p7iBzTXu6Bn-189" value="" style="html=1;verticalAlign=bottom;endArrow=open;dashed=1;endSize=8;rounded=0;fontSize=15;fontColor=#000000;strokeColor=#CC0000;" parent="1" source="Of5QE-kt6p7iBzTXu6Bn-173" target="Of5QE-kt6p7iBzTXu6Bn-170" edge="1">
          <mxGeometry x="-0.1935" y="2" relative="1" as="geometry">
            <mxPoint x="1240.4999999999995" y="549" as="sourcePoint" />
            <mxPoint x="1058" y="549" as="targetPoint" />
            <Array as="points">
              <mxPoint x="1221" y="549" />
            </Array>
            <mxPoint as="offset" />
          </mxGeometry>
        </mxCell>
        <mxCell id="Of5QE-kt6p7iBzTXu6Bn-190" value="&lt;span style=&quot;color: rgb(204, 0, 0); font-size: 15px;&quot;&gt;statut 500&lt;/span&gt;" style="edgeLabel;html=1;align=center;verticalAlign=middle;resizable=0;points=[];" parent="Of5QE-kt6p7iBzTXu6Bn-189" vertex="1" connectable="0">
          <mxGeometry x="-0.1012" y="-3" relative="1" as="geometry">
            <mxPoint x="-3" y="-8" as="offset" />
          </mxGeometry>
        </mxCell>
        <mxCell id="Of5QE-kt6p7iBzTXu6Bn-197" value="&lt;div style=&quot;text-align: left; font-size: 15px;&quot;&gt;&lt;/div&gt;&lt;span style=&quot;text-align: right;&quot;&gt;&lt;div style=&quot;text-align: left;&quot;&gt;&lt;span style=&quot;background-color: initial;&quot;&gt;[Suppression Valide&lt;/span&gt;&lt;span style=&quot;background-color: initial;&quot;&gt;]&lt;/span&gt;&lt;/div&gt;&lt;/span&gt;" style="text;html=1;strokeColor=none;fillColor=none;align=center;verticalAlign=middle;whiteSpace=wrap;rounded=0;fontSize=15;fontColor=#009900;" parent="1" vertex="1">
          <mxGeometry x="837.0043024553572" y="635" width="177.32034598214287" height="28" as="geometry" />
        </mxCell>
        <mxCell id="Of5QE-kt6p7iBzTXu6Bn-198" value="&lt;div style=&quot;text-align: left; font-size: 15px;&quot;&gt;&lt;/div&gt;&lt;span style=&quot;text-align: right;&quot;&gt;&lt;div style=&quot;text-align: left;&quot;&gt;&lt;span style=&quot;background-color: initial;&quot;&gt;[Suppression Invalide&lt;/span&gt;&lt;span style=&quot;background-color: initial;&quot;&gt;]&lt;/span&gt;&lt;/div&gt;&lt;/span&gt;" style="text;html=1;strokeColor=none;fillColor=none;align=center;verticalAlign=middle;whiteSpace=wrap;rounded=0;fontSize=15;fontColor=#CC0000;" parent="1" vertex="1">
          <mxGeometry x="832.0043024553572" y="709" width="177.32034598214287" height="28" as="geometry" />
        </mxCell>
        <mxCell id="Of5QE-kt6p7iBzTXu6Bn-201" value="" style="edgeStyle=elbowEdgeStyle;fontSize=12;html=1;endArrow=blockThin;endFill=1;rounded=0;fontColor=#000000;" parent="1" source="Of5QE-kt6p7iBzTXu6Bn-170" target="Of5QE-kt6p7iBzTXu6Bn-208" edge="1">
          <mxGeometry width="160" relative="1" as="geometry">
            <mxPoint x="1018" y="600" as="sourcePoint" />
            <mxPoint x="1257" y="600" as="targetPoint" />
            <Array as="points">
              <mxPoint x="1213" y="602" />
              <mxPoint x="1232" y="639" />
            </Array>
          </mxGeometry>
        </mxCell>
        <mxCell id="Of5QE-kt6p7iBzTXu6Bn-202" value="delete(id)" style="edgeLabel;html=1;align=center;verticalAlign=middle;resizable=0;points=[];fontSize=15;fontColor=#000000;" parent="Of5QE-kt6p7iBzTXu6Bn-201" vertex="1" connectable="0">
          <mxGeometry x="-0.0294" relative="1" as="geometry">
            <mxPoint x="48" y="-13" as="offset" />
          </mxGeometry>
        </mxCell>
        <mxCell id="Of5QE-kt6p7iBzTXu6Bn-211" value="" style="edgeStyle=elbowEdgeStyle;fontSize=12;html=1;endArrow=blockThin;endFill=1;rounded=0;fontColor=#000000;" parent="1" source="Of5QE-kt6p7iBzTXu6Bn-208" target="Of5QE-kt6p7iBzTXu6Bn-210" edge="1">
          <mxGeometry width="160" relative="1" as="geometry">
            <mxPoint x="1878" y="621" as="sourcePoint" />
            <mxPoint x="2516.5" y="615" as="targetPoint" />
            <Array as="points">
              <mxPoint x="1811" y="617" />
              <mxPoint x="2070" y="670" />
            </Array>
          </mxGeometry>
        </mxCell>
        <mxCell id="Of5QE-kt6p7iBzTXu6Bn-212" value="delete(id)" style="edgeLabel;html=1;align=center;verticalAlign=middle;resizable=0;points=[];fontSize=15;fontColor=#000000;" parent="Of5QE-kt6p7iBzTXu6Bn-211" vertex="1" connectable="0">
          <mxGeometry x="-0.0294" relative="1" as="geometry">
            <mxPoint x="5" y="-12" as="offset" />
          </mxGeometry>
        </mxCell>
        <mxCell id="Of5QE-kt6p7iBzTXu6Bn-213" style="rounded=0;orthogonalLoop=1;jettySize=auto;html=1;fontSize=15;fontColor=#000000;strokeColor=#000000;endArrow=none;endFill=0;dashed=1;exitX=0;exitY=0.51;exitDx=0;exitDy=0;exitPerimeter=0;entryX=1;entryY=0.497;entryDx=0;entryDy=0;entryPerimeter=0;" parent="1" source="Of5QE-kt6p7iBzTXu6Bn-196" target="Of5QE-kt6p7iBzTXu6Bn-196" edge="1">
          <mxGeometry relative="1" as="geometry">
            <mxPoint x="810.9999999999999" y="691.6639999999999" as="sourcePoint" />
            <mxPoint x="2534.84" y="691.6639999999999" as="targetPoint" />
          </mxGeometry>
        </mxCell>
        <mxCell id="Of5QE-kt6p7iBzTXu6Bn-215" value="&lt;font color=&quot;#009900&quot;&gt;supprimé&lt;/font&gt;" style="html=1;verticalAlign=bottom;endArrow=open;dashed=1;endSize=8;rounded=0;fontSize=15;strokeColor=#009900;" parent="1" source="Of5QE-kt6p7iBzTXu6Bn-210" target="Of5QE-kt6p7iBzTXu6Bn-208" edge="1">
          <mxGeometry x="0.0204" y="1" relative="1" as="geometry">
            <mxPoint x="2503.5" y="663" as="sourcePoint" />
            <mxPoint x="1878" y="656" as="targetPoint" />
            <Array as="points">
              <mxPoint x="1812" y="656" />
            </Array>
            <mxPoint as="offset" />
          </mxGeometry>
        </mxCell>
        <mxCell id="Of5QE-kt6p7iBzTXu6Bn-217" value="" style="html=1;verticalAlign=bottom;endArrow=open;dashed=1;endSize=8;rounded=0;fontSize=15;strokeColor=#009900;" parent="1" source="Of5QE-kt6p7iBzTXu6Bn-208" target="Of5QE-kt6p7iBzTXu6Bn-170" edge="1">
          <mxGeometry x="-0.1513" relative="1" as="geometry">
            <mxPoint x="1646" y="684" as="sourcePoint" />
            <mxPoint x="1412" y="687" as="targetPoint" />
            <Array as="points" />
            <mxPoint as="offset" />
          </mxGeometry>
        </mxCell>
        <mxCell id="Of5QE-kt6p7iBzTXu6Bn-218" value="&lt;span style=&quot;color: rgb(0, 153, 0); font-size: 15px;&quot;&gt;statut 200&lt;/span&gt;" style="edgeLabel;html=1;align=center;verticalAlign=middle;resizable=0;points=[];" parent="Of5QE-kt6p7iBzTXu6Bn-217" vertex="1" connectable="0">
          <mxGeometry x="-0.2458" y="1" relative="1" as="geometry">
            <mxPoint x="-41" y="-14" as="offset" />
          </mxGeometry>
        </mxCell>
        <mxCell id="Of5QE-kt6p7iBzTXu6Bn-219" value="&lt;font color=&quot;#cc0000&quot;&gt;non supprimé&lt;/font&gt;" style="html=1;verticalAlign=bottom;endArrow=open;dashed=1;endSize=8;rounded=0;fontSize=15;fontColor=#000000;strokeColor=#CC0000;" parent="1" source="Of5QE-kt6p7iBzTXu6Bn-210" target="Of5QE-kt6p7iBzTXu6Bn-208" edge="1">
          <mxGeometry relative="1" as="geometry">
            <mxPoint x="2503.5" y="725" as="sourcePoint" />
            <mxPoint x="1878" y="717.9999999999998" as="targetPoint" />
            <Array as="points">
              <mxPoint x="1769" y="718" />
            </Array>
          </mxGeometry>
        </mxCell>
        <mxCell id="Of5QE-kt6p7iBzTXu6Bn-221" value="" style="html=1;verticalAlign=bottom;endArrow=open;dashed=1;endSize=8;rounded=0;fontSize=15;fontColor=#000000;strokeColor=#CC0000;" parent="1" source="Of5QE-kt6p7iBzTXu6Bn-208" target="Of5QE-kt6p7iBzTXu6Bn-170" edge="1">
          <mxGeometry x="-0.1141" y="-5" relative="1" as="geometry">
            <mxPoint x="1650" y="741" as="sourcePoint" />
            <mxPoint x="1416" y="741" as="targetPoint" />
            <Array as="points">
              <mxPoint x="1460" y="741" />
            </Array>
            <mxPoint as="offset" />
          </mxGeometry>
        </mxCell>
        <mxCell id="Of5QE-kt6p7iBzTXu6Bn-222" value="&lt;span style=&quot;color: rgb(204, 0, 0); font-size: 15px;&quot;&gt;statut 500&lt;/span&gt;" style="edgeLabel;html=1;align=center;verticalAlign=middle;resizable=0;points=[];fontColor=none;" parent="Of5QE-kt6p7iBzTXu6Bn-221" vertex="1" connectable="0">
          <mxGeometry x="-0.1512" y="3" relative="1" as="geometry">
            <mxPoint x="-10" y="-15" as="offset" />
          </mxGeometry>
        </mxCell>
        <mxCell id="Of5QE-kt6p7iBzTXu6Bn-226" value="&lt;div style=&quot;text-align: left; font-size: 15px;&quot;&gt;&lt;/div&gt;&lt;span style=&quot;text-align: right;&quot;&gt;&lt;div style=&quot;text-align: left;&quot;&gt;&lt;span style=&quot;background-color: initial;&quot;&gt;[Suppression Valide&lt;/span&gt;&lt;span style=&quot;background-color: initial;&quot;&gt;]&lt;/span&gt;&lt;/div&gt;&lt;/span&gt;" style="text;html=1;strokeColor=none;fillColor=none;align=center;verticalAlign=middle;whiteSpace=wrap;rounded=0;fontSize=15;fontColor=#009900;" parent="1" vertex="1">
          <mxGeometry x="834.0043024553572" y="817" width="177.32034598214287" height="28" as="geometry" />
        </mxCell>
        <mxCell id="Of5QE-kt6p7iBzTXu6Bn-227" value="&lt;div style=&quot;text-align: left; font-size: 15px;&quot;&gt;&lt;/div&gt;&lt;span style=&quot;text-align: right;&quot;&gt;&lt;div style=&quot;text-align: left;&quot;&gt;&lt;span style=&quot;background-color: initial;&quot;&gt;[Suppression Invalide&lt;/span&gt;&lt;span style=&quot;background-color: initial;&quot;&gt;]&lt;/span&gt;&lt;/div&gt;&lt;/span&gt;" style="text;html=1;strokeColor=none;fillColor=none;align=center;verticalAlign=middle;whiteSpace=wrap;rounded=0;fontSize=15;fontColor=#CC0000;" parent="1" vertex="1">
          <mxGeometry x="829.0043024553572" y="891" width="177.32034598214287" height="28" as="geometry" />
        </mxCell>
        <mxCell id="Of5QE-kt6p7iBzTXu6Bn-228" style="rounded=0;orthogonalLoop=1;jettySize=auto;html=1;fontSize=15;fontColor=#000000;strokeColor=#000000;endArrow=none;endFill=0;dashed=1;exitX=0;exitY=0.51;exitDx=0;exitDy=0;exitPerimeter=0;entryX=1;entryY=0.512;entryDx=0;entryDy=0;entryPerimeter=0;" parent="1" target="Of5QE-kt6p7iBzTXu6Bn-229" edge="1">
          <mxGeometry relative="1" as="geometry">
            <mxPoint x="784" y="875.73" as="sourcePoint" />
            <mxPoint x="2499" y="874" as="targetPoint" />
          </mxGeometry>
        </mxCell>
        <mxCell id="Of5QE-kt6p7iBzTXu6Bn-230" value="" style="edgeStyle=elbowEdgeStyle;fontSize=12;html=1;endArrow=blockThin;endFill=1;rounded=0;fontColor=#000000;" parent="1" source="Of5QE-kt6p7iBzTXu6Bn-170" target="Of5QE-kt6p7iBzTXu6Bn-233" edge="1">
          <mxGeometry width="160" relative="1" as="geometry">
            <mxPoint x="1014.32" y="786" as="sourcePoint" />
            <mxPoint x="1680.32" y="786" as="targetPoint" />
            <Array as="points">
              <mxPoint x="1244" y="780" />
            </Array>
          </mxGeometry>
        </mxCell>
        <mxCell id="Of5QE-kt6p7iBzTXu6Bn-231" value="delete(id)" style="edgeLabel;html=1;align=center;verticalAlign=middle;resizable=0;points=[];fontSize=15;fontColor=#000000;" parent="Of5QE-kt6p7iBzTXu6Bn-230" vertex="1" connectable="0">
          <mxGeometry x="-0.0294" relative="1" as="geometry">
            <mxPoint x="59" y="-12" as="offset" />
          </mxGeometry>
        </mxCell>
        <mxCell id="Of5QE-kt6p7iBzTXu6Bn-238" value="" style="edgeStyle=elbowEdgeStyle;fontSize=12;html=1;endArrow=blockThin;endFill=1;rounded=0;fontColor=#000000;" parent="1" source="Of5QE-kt6p7iBzTXu6Bn-233" target="Of5QE-kt6p7iBzTXu6Bn-237" edge="1">
          <mxGeometry width="160" relative="1" as="geometry">
            <mxPoint x="2300" y="798.9999999999998" as="sourcePoint" />
            <mxPoint x="2636" y="805" as="targetPoint" />
            <Array as="points">
              <mxPoint x="1789" y="794" />
              <mxPoint x="2491" y="805" />
              <mxPoint x="2672" y="845" />
            </Array>
          </mxGeometry>
        </mxCell>
        <mxCell id="Of5QE-kt6p7iBzTXu6Bn-239" value="delete(id)" style="edgeLabel;html=1;align=center;verticalAlign=middle;resizable=0;points=[];fontSize=15;fontColor=#000000;" parent="Of5QE-kt6p7iBzTXu6Bn-238" vertex="1" connectable="0">
          <mxGeometry x="-0.0294" relative="1" as="geometry">
            <mxPoint x="2" y="-12" as="offset" />
          </mxGeometry>
        </mxCell>
        <mxCell id="Of5QE-kt6p7iBzTXu6Bn-240" value="&lt;font color=&quot;#009900&quot;&gt;supprimé&lt;/font&gt;" style="html=1;verticalAlign=bottom;endArrow=open;dashed=1;endSize=8;rounded=0;fontSize=15;strokeColor=#009900;" parent="1" source="Of5QE-kt6p7iBzTXu6Bn-237" target="Of5QE-kt6p7iBzTXu6Bn-233" edge="1">
          <mxGeometry x="0.0204" y="1" relative="1" as="geometry">
            <mxPoint x="2499.5" y="841" as="sourcePoint" />
            <mxPoint x="2300" y="838.9999999999998" as="targetPoint" />
            <Array as="points">
              <mxPoint x="1747" y="839" />
            </Array>
            <mxPoint as="offset" />
          </mxGeometry>
        </mxCell>
        <mxCell id="Of5QE-kt6p7iBzTXu6Bn-242" value="" style="html=1;verticalAlign=bottom;endArrow=open;dashed=1;endSize=8;rounded=0;fontSize=15;strokeColor=#009900;" parent="1" source="Of5QE-kt6p7iBzTXu6Bn-233" target="Of5QE-kt6p7iBzTXu6Bn-170" edge="1">
          <mxGeometry x="0.0204" y="1" relative="1" as="geometry">
            <mxPoint x="2018.5" y="865" as="sourcePoint" />
            <mxPoint x="1393" y="865" as="targetPoint" />
            <Array as="points">
              <mxPoint x="1653" y="865" />
            </Array>
            <mxPoint as="offset" />
          </mxGeometry>
        </mxCell>
        <mxCell id="Of5QE-kt6p7iBzTXu6Bn-243" value="&lt;span style=&quot;color: rgb(0, 153, 0); font-size: 15px;&quot;&gt;statut 200&lt;/span&gt;" style="edgeLabel;html=1;align=center;verticalAlign=middle;resizable=0;points=[];fontColor=none;" parent="Of5QE-kt6p7iBzTXu6Bn-242" vertex="1" connectable="0">
          <mxGeometry x="-0.0057" y="-1" relative="1" as="geometry">
            <mxPoint x="36" y="-9" as="offset" />
          </mxGeometry>
        </mxCell>
        <mxCell id="Of5QE-kt6p7iBzTXu6Bn-244" value="&lt;font color=&quot;#cc0000&quot;&gt;non supprimé&lt;/font&gt;" style="html=1;verticalAlign=bottom;endArrow=open;dashed=1;endSize=8;rounded=0;fontSize=15;fontColor=#000000;strokeColor=#CC0000;" parent="1" source="Of5QE-kt6p7iBzTXu6Bn-237" target="Of5QE-kt6p7iBzTXu6Bn-233" edge="1">
          <mxGeometry relative="1" as="geometry">
            <mxPoint x="2503.5" y="904.5699999999999" as="sourcePoint" />
            <mxPoint x="2300" y="899" as="targetPoint" />
            <Array as="points">
              <mxPoint x="1757" y="913" />
            </Array>
          </mxGeometry>
        </mxCell>
        <mxCell id="Of5QE-kt6p7iBzTXu6Bn-246" value="" style="html=1;verticalAlign=bottom;endArrow=open;dashed=1;endSize=8;rounded=0;fontSize=15;fontColor=#000000;strokeColor=#CC0000;" parent="1" source="Of5QE-kt6p7iBzTXu6Bn-233" target="Of5QE-kt6p7iBzTXu6Bn-170" edge="1">
          <mxGeometry relative="1" as="geometry">
            <mxPoint x="2057.0000000000005" y="904.83" as="sourcePoint" />
            <mxPoint x="1772.0000000000005" y="904.83" as="targetPoint" />
            <Array as="points">
              <mxPoint x="1639" y="925" />
            </Array>
          </mxGeometry>
        </mxCell>
        <mxCell id="Of5QE-kt6p7iBzTXu6Bn-247" value="&lt;span style=&quot;color: rgb(204, 0, 0); font-size: 15px;&quot;&gt;statut 500&lt;/span&gt;" style="edgeLabel;html=1;align=center;verticalAlign=middle;resizable=0;points=[];fontColor=none;" parent="Of5QE-kt6p7iBzTXu6Bn-246" vertex="1" connectable="0">
          <mxGeometry x="-0.0626" y="-2" relative="1" as="geometry">
            <mxPoint x="20" y="-11" as="offset" />
          </mxGeometry>
        </mxCell>
        <mxCell id="Of5QE-kt6p7iBzTXu6Bn-248" value="" style="html=1;verticalAlign=bottom;endArrow=open;dashed=1;endSize=8;rounded=0;fontSize=15;strokeColor=#CC0000;" parent="1" source="Of5QE-kt6p7iBzTXu6Bn-170" target="Of5QE-kt6p7iBzTXu6Bn-18" edge="1">
          <mxGeometry x="0.4385" y="-6" relative="1" as="geometry">
            <mxPoint x="780.5000000000005" y="639" as="sourcePoint" />
            <mxPoint x="333.5" y="639" as="targetPoint" />
            <Array as="points">
              <mxPoint x="444" y="553" />
            </Array>
            <mxPoint as="offset" />
          </mxGeometry>
        </mxCell>
        <mxCell id="Of5QE-kt6p7iBzTXu6Bn-249" value="&lt;span style=&quot;color: rgb(204, 0, 0); font-size: 15px;&quot;&gt;close modale,pop-up rouge, message erreur&lt;/span&gt;" style="edgeLabel;html=1;align=center;verticalAlign=middle;resizable=0;points=[];fontColor=none;" parent="Of5QE-kt6p7iBzTXu6Bn-248" vertex="1" connectable="0">
          <mxGeometry x="0.192" relative="1" as="geometry">
            <mxPoint x="-13" y="-11" as="offset" />
          </mxGeometry>
        </mxCell>
        <mxCell id="Of5QE-kt6p7iBzTXu6Bn-250" value="" style="html=1;verticalAlign=bottom;endArrow=open;dashed=1;endSize=8;rounded=0;fontSize=15;strokeColor=#CC0000;" parent="1" source="Of5QE-kt6p7iBzTXu6Bn-170" target="Of5QE-kt6p7iBzTXu6Bn-18" edge="1">
          <mxGeometry x="0.4385" y="-6" relative="1" as="geometry">
            <mxPoint x="994.5" y="746" as="sourcePoint" />
            <mxPoint x="320" y="746" as="targetPoint" />
            <Array as="points">
              <mxPoint x="440.5" y="746" />
            </Array>
            <mxPoint as="offset" />
          </mxGeometry>
        </mxCell>
        <mxCell id="Of5QE-kt6p7iBzTXu6Bn-251" value="&lt;span style=&quot;color: rgb(204, 0, 0); font-size: 15px;&quot;&gt;close modale,pop-up rouge, message erreur&lt;/span&gt;" style="edgeLabel;html=1;align=center;verticalAlign=middle;resizable=0;points=[];fontColor=none;" parent="Of5QE-kt6p7iBzTXu6Bn-250" vertex="1" connectable="0">
          <mxGeometry x="0.192" relative="1" as="geometry">
            <mxPoint x="-13" y="-11" as="offset" />
          </mxGeometry>
        </mxCell>
        <mxCell id="Of5QE-kt6p7iBzTXu6Bn-252" value="" style="html=1;verticalAlign=bottom;endArrow=open;dashed=1;endSize=8;rounded=0;fontSize=15;strokeColor=#CC0000;" parent="1" source="Of5QE-kt6p7iBzTXu6Bn-170" target="Of5QE-kt6p7iBzTXu6Bn-18" edge="1">
          <mxGeometry x="0.4385" y="-6" relative="1" as="geometry">
            <mxPoint x="976.5" y="923" as="sourcePoint" />
            <mxPoint x="302" y="923" as="targetPoint" />
            <Array as="points">
              <mxPoint x="423" y="931" />
            </Array>
            <mxPoint as="offset" />
          </mxGeometry>
        </mxCell>
        <mxCell id="Of5QE-kt6p7iBzTXu6Bn-253" value="&lt;span style=&quot;color: rgb(204, 0, 0); font-size: 15px;&quot;&gt;close modale,pop-up rouge, message erreur&lt;/span&gt;" style="edgeLabel;html=1;align=center;verticalAlign=middle;resizable=0;points=[];fontColor=none;" parent="Of5QE-kt6p7iBzTXu6Bn-252" vertex="1" connectable="0">
          <mxGeometry x="0.192" relative="1" as="geometry">
            <mxPoint x="-13" y="-11" as="offset" />
          </mxGeometry>
        </mxCell>
        <mxCell id="Of5QE-kt6p7iBzTXu6Bn-254" value="" style="html=1;verticalAlign=bottom;endArrow=open;dashed=1;endSize=8;rounded=0;fontSize=15;strokeColor=#009900;" parent="1" source="Of5QE-kt6p7iBzTXu6Bn-170" target="Of5QE-kt6p7iBzTXu6Bn-18" edge="1">
          <mxGeometry x="0.4385" y="-6" relative="1" as="geometry">
            <mxPoint x="994.5" y="964" as="sourcePoint" />
            <mxPoint x="320" y="964" as="targetPoint" />
            <Array as="points">
              <mxPoint x="440" y="987" />
            </Array>
            <mxPoint as="offset" />
          </mxGeometry>
        </mxCell>
        <mxCell id="Of5QE-kt6p7iBzTXu6Bn-255" value="&lt;span style=&quot;font-size: 15px;&quot;&gt;close modale,pop-up rouge, message&amp;nbsp;succès&lt;/span&gt;" style="edgeLabel;html=1;align=center;verticalAlign=middle;resizable=0;points=[];fontColor=#009900;" parent="Of5QE-kt6p7iBzTXu6Bn-254" vertex="1" connectable="0">
          <mxGeometry x="0.192" relative="1" as="geometry">
            <mxPoint x="-13" y="-11" as="offset" />
          </mxGeometry>
        </mxCell>
        <mxCell id="Of5QE-kt6p7iBzTXu6Bn-256" value="&lt;font color=&quot;#000000&quot; style=&quot;font-size: 15px;&quot;&gt;[&lt;span style=&quot;font-size: 15px; text-align: right;&quot;&gt;Suppression&amp;nbsp;&lt;/span&gt;non Confirmé]&lt;/font&gt;" style="text;html=1;strokeColor=none;fillColor=none;align=center;verticalAlign=middle;whiteSpace=wrap;rounded=0;fontSize=15;fontColor=#FF5521;" parent="1" vertex="1">
          <mxGeometry x="110.00084507042254" y="1023.9979627473807" width="211.6985915492958" height="46.676380072587826" as="geometry" />
        </mxCell>
        <mxCell id="Of5QE-kt6p7iBzTXu6Bn-257" value="" style="edgeStyle=elbowEdgeStyle;fontSize=12;html=1;endArrow=blockThin;endFill=1;rounded=0;fontColor=#000000;" parent="1" source="Of5QE-kt6p7iBzTXu6Bn-12" target="Of5QE-kt6p7iBzTXu6Bn-263" edge="1">
          <mxGeometry width="160" relative="1" as="geometry">
            <mxPoint x="117.00393939393949" y="1097" as="sourcePoint" />
            <mxPoint x="791" y="1075" as="targetPoint" />
            <Array as="points">
              <mxPoint x="548" y="1090" />
              <mxPoint x="407.11" y="1428" />
              <mxPoint x="643.15" y="1203" />
            </Array>
          </mxGeometry>
        </mxCell>
        <mxCell id="Of5QE-kt6p7iBzTXu6Bn-258" value="cliquer sur bouton annuler" style="edgeLabel;html=1;align=center;verticalAlign=middle;resizable=0;points=[];fontSize=15;fontColor=#000000;" parent="Of5QE-kt6p7iBzTXu6Bn-257" vertex="1" connectable="0">
          <mxGeometry x="0.0775" y="-2" relative="1" as="geometry">
            <mxPoint x="-32" y="-18" as="offset" />
          </mxGeometry>
        </mxCell>
        <mxCell id="Of5QE-kt6p7iBzTXu6Bn-259" value="" style="fontSize=12;html=1;endArrow=blockThin;endFill=1;rounded=0;fontColor=#CC0000;" parent="1" source="Of5QE-kt6p7iBzTXu6Bn-263" target="Of5QE-kt6p7iBzTXu6Bn-170" edge="1">
          <mxGeometry width="160" relative="1" as="geometry">
            <mxPoint x="830" y="1086" as="sourcePoint" />
            <mxPoint x="570" y="788.0000000000002" as="targetPoint" />
            <Array as="points">
              <mxPoint x="873" y="1106" />
              <mxPoint x="976" y="1108" />
            </Array>
          </mxGeometry>
        </mxCell>
        <mxCell id="Of5QE-kt6p7iBzTXu6Bn-260" value="&lt;font color=&quot;#000000&quot;&gt;cancel()&lt;/font&gt;" style="edgeLabel;html=1;align=center;verticalAlign=middle;resizable=0;points=[];fontSize=15;fontColor=#CC0000;" parent="Of5QE-kt6p7iBzTXu6Bn-259" vertex="1" connectable="0">
          <mxGeometry x="-0.0013" y="1" relative="1" as="geometry">
            <mxPoint x="-2" y="-13" as="offset" />
          </mxGeometry>
        </mxCell>
        <mxCell id="Of5QE-kt6p7iBzTXu6Bn-262" value="disparaître modal" style="html=1;verticalAlign=bottom;endArrow=open;dashed=1;endSize=8;rounded=0;fontSize=15;fontColor=#000000;" parent="1" source="Of5QE-kt6p7iBzTXu6Bn-170" target="Of5QE-kt6p7iBzTXu6Bn-18" edge="1">
          <mxGeometry relative="1" as="geometry">
            <mxPoint x="560" y="805" as="sourcePoint" />
            <mxPoint x="333.5" y="805" as="targetPoint" />
            <Array as="points">
              <mxPoint x="449" y="1138" />
            </Array>
          </mxGeometry>
        </mxCell>
      </root>
    </mxGraphModel>
  </diagram>
</mxfile>
